<svg width="35" height="34" viewBox="0 0 35 34" fill="none" xmlns="http://www.w3.org/2000/svg">
<path d="M17.6505 33.9898H17.5757C8.22821 33.9898 0.623199 26.3826 0.623199 17.0323V16.9575C0.623199 7.60724 8.22821 0 17.5757 0H17.6505C26.998 0 34.6031 7.60724 34.6031 16.9575V17.0323C34.6031 26.3826 26.998 33.9898 17.6505 33.9898ZM17.5757 1.15052C8.86196 1.15052 1.77338 8.24117 1.77338 16.9575V17.0323C1.77338 25.7487 8.86196 32.8393 17.5757 32.8393H17.6505C26.3643 32.8393 33.4529 25.7487 33.4529 17.0323V16.9575C33.4529 8.24117 26.3643 1.15052 17.6505 1.15052H17.5757Z" fill="white"/>
<path d="M22.6929 7.25659H12.5345C9.72804 7.25659 7.44492 9.54038 7.44492 12.3477V21.6438C7.44492 24.4511 9.72804 26.7349 12.5345 26.7349H22.6929C25.4993 26.7349 27.7825 24.4511 27.7825 21.6438V12.3477C27.7825 9.54038 25.4993 7.25659 22.6929 7.25659ZM9.24036 12.3477C9.24036 10.531 10.7183 9.05254 12.5345 9.05254H22.6929C24.509 9.05254 25.987 10.531 25.987 12.3477V21.6438C25.987 23.4605 24.509 24.939 22.6929 24.939H12.5345C10.7183 24.939 9.24036 23.4605 9.24036 21.6438V12.3477Z" fill="white"/>
<path d="M17.6137 21.7301C20.2235 21.7301 22.3479 19.6063 22.3479 16.9946C22.3479 14.3829 20.2246 12.259 17.6137 12.259C15.0028 12.259 12.8796 14.3829 12.8796 16.9946C12.8796 19.6063 15.0028 21.7301 17.6137 21.7301ZM17.6137 14.0561C19.2343 14.0561 20.5524 15.3746 20.5524 16.9957C20.5524 18.6168 19.2343 19.9353 17.6137 19.9353C15.9931 19.9353 14.675 18.6168 14.675 16.9957C14.675 15.3746 15.9931 14.0561 17.6137 14.0561Z" fill="white"/>
<path d="M22.7861 13.024C23.4889 13.024 24.0616 12.4522 24.0616 11.7481C24.0616 11.044 23.49 10.4722 22.7861 10.4722C22.0822 10.4722 21.5105 11.044 21.5105 11.7481C21.5105 12.4522 22.0822 13.024 22.7861 13.024Z" fill="white"/>
</svg>
